<svg width="31" height="29" viewBox="0 0 31 29" fill="none" xmlns="http://www.w3.org/2000/svg">
<rect width="31" height="29" rx="5" fill="#FF5100"/>
<path d="M16.6823 16.7202V9.21354C16.6823 8.77151 16.5067 8.34759 16.1941 8.03503C15.8816 7.72247 15.4577 7.54688 15.0156 7.54688C14.5736 7.54688 14.1497 7.72247 13.8371 8.03503C13.5246 8.34759 13.349 8.77151 13.349 9.21354V16.7202C12.8138 17.0778 12.4078 17.598 12.191 18.2039C11.9742 18.8099 11.958 19.4696 12.1448 20.0855C12.3316 20.7014 12.7116 21.2409 13.2285 21.6243C13.7455 22.0077 14.372 22.2146 15.0156 22.2146C15.6592 22.2146 16.2858 22.0077 16.8027 21.6243C17.3197 21.2409 17.6996 20.7014 17.8865 20.0855C18.0733 19.4696 18.0571 18.8099 17.8402 18.2039C17.6234 17.598 17.2174 17.0778 16.6823 16.7202Z" stroke="#FFFBF7" stroke-width="1.6" stroke-linecap="round" stroke-linejoin="round"/>
</svg>
