<svg width="31" height="29" viewBox="0 0 31 29" fill="none" xmlns="http://www.w3.org/2000/svg">
<rect width="31" height="29" rx="5" fill="#0C759E"/>
<g clip-path="url(#clip0_240_1289)">
<path d="M5.95785 18.7207C5.80377 18.7207 5.66748 18.6674 5.54896 18.5607C5.43044 18.4541 5.37118 18.3119 5.37118 18.1341C5.37118 18.0748 5.38303 17.9978 5.40674 17.903L7.62896 11.8763C7.71192 11.6748 7.83637 11.5207 8.00229 11.4141C8.16822 11.3074 8.346 11.2541 8.53563 11.2541C8.72525 11.2541 8.90303 11.3074 9.06896 11.4141C9.24674 11.5207 9.37711 11.6748 9.46007 11.8763L11.8245 17.903C11.8482 17.9978 11.8601 18.0748 11.8601 18.1341C11.8601 18.3119 11.8008 18.4541 11.6823 18.5607C11.5638 18.6674 11.4275 18.7207 11.2734 18.7207C11.1667 18.7207 11.0541 18.6911 10.9356 18.6319C10.829 18.5845 10.746 18.5015 10.6867 18.383L10.1001 16.8185C10.0882 16.7474 10.0408 16.7119 9.95785 16.7119H7.23785C7.15488 16.7119 7.10155 16.7474 7.07785 16.8185L6.54451 18.383C6.48525 18.5015 6.39637 18.5845 6.27785 18.6319C6.17118 18.6911 6.06451 18.7207 5.95785 18.7207ZM7.77118 15.6452H9.37118C9.44229 15.6452 9.49562 15.6215 9.53118 15.5741C9.57859 15.5148 9.59044 15.4437 9.56674 15.3607L8.7134 12.9252C8.67785 12.8067 8.62451 12.7474 8.5534 12.7474C8.47044 12.7474 8.41118 12.8067 8.37562 12.9252L7.57563 15.3785C7.55192 15.4496 7.55785 15.5148 7.5934 15.5741C7.64081 15.6215 7.70007 15.6452 7.77118 15.6452ZM15.7049 18.7207C15.3731 18.7207 15.0768 18.6615 14.816 18.543C14.5553 18.4363 14.3301 18.2882 14.1405 18.0985V18.1696C14.1405 18.3474 14.0753 18.4837 13.9449 18.5785C13.8264 18.6733 13.6901 18.7207 13.536 18.7207C13.382 18.7207 13.2397 18.6733 13.1094 18.5785C12.9909 18.4837 12.9316 18.3474 12.9316 18.1696V11.4141C12.9316 11.2126 12.9909 11.0645 13.1094 10.9696C13.2397 10.863 13.382 10.8096 13.536 10.8096C13.6901 10.8096 13.8264 10.863 13.9449 10.9696C14.0753 11.0645 14.1405 11.2126 14.1405 11.4141V13.903C14.3301 13.7133 14.5553 13.5652 14.816 13.4585C15.0768 13.3519 15.3731 13.2985 15.7049 13.2985C16.2264 13.2985 16.6827 13.417 17.0738 13.6541C17.4768 13.8793 17.7909 14.1933 18.016 14.5963C18.2412 14.9993 18.3538 15.4556 18.3538 15.9652C18.3538 16.4867 18.2412 16.9607 18.016 17.3874C17.7909 17.8022 17.4768 18.1282 17.0738 18.3652C16.6827 18.6022 16.2264 18.7207 15.7049 18.7207ZM15.5983 17.6185C16.0605 17.6185 16.4338 17.4704 16.7183 17.1741C17.0027 16.8659 17.1449 16.463 17.1449 15.9652C17.1449 15.4911 17.0027 15.1119 16.7183 14.8274C16.4338 14.543 16.0605 14.4007 15.5983 14.4007C15.1479 14.4007 14.7923 14.543 14.5316 14.8274C14.2709 15.1119 14.1405 15.4911 14.1405 15.9652C14.1405 16.463 14.2709 16.8659 14.5316 17.1741C14.7923 17.4704 15.1479 17.6185 15.5983 17.6185ZM21.9627 18.7207C21.1686 18.7207 20.5168 18.4659 20.0072 17.9563C19.4975 17.4467 19.2427 16.783 19.2427 15.9652C19.2427 15.4437 19.3612 14.9815 19.5983 14.5785C19.8353 14.1756 20.1553 13.8615 20.5583 13.6363C20.9731 13.4111 21.4412 13.2985 21.9627 13.2985C22.6738 13.2985 23.2783 13.4645 23.776 13.7963C23.942 13.903 24.0249 14.0511 24.0249 14.2407C24.0249 14.4304 23.9657 14.5785 23.8472 14.6852C23.7286 14.7919 23.5923 14.8452 23.4383 14.8452C23.3316 14.8452 23.2368 14.8215 23.1538 14.7741C22.7153 14.4778 22.3064 14.3474 21.9272 14.383C21.4649 14.4304 21.1034 14.5904 20.8427 14.863C20.582 15.1237 20.4516 15.497 20.4516 15.983C20.4516 16.4926 20.5879 16.8956 20.8605 17.1919C21.1449 17.4763 21.542 17.6185 22.0516 17.6185C22.502 17.6185 22.9523 17.4467 23.4027 17.103C23.4975 17.02 23.622 16.9785 23.776 16.9785C23.9538 16.9785 24.0842 17.0496 24.1672 17.1919C24.262 17.3222 24.3094 17.4467 24.3094 17.5652C24.3094 17.7311 24.2323 17.8852 24.0783 18.0274C23.782 18.2882 23.456 18.4659 23.1005 18.5607C22.7449 18.6674 22.3657 18.7207 21.9627 18.7207Z" fill="white"/>
</g>
<defs>
<clipPath id="clip0_240_1289">
<rect width="24" height="24" fill="white" transform="translate(3.5)"/>
</clipPath>
</defs>
</svg>
