<svg width="31" height="29" viewBox="0 0 31 29" fill="none" xmlns="http://www.w3.org/2000/svg">
<rect width="31" height="29" rx="5" fill="#4E00BA"/>
<path d="M15.0156 10.8086C15.0156 9.94457 14.6724 9.11593 14.0614 8.50497C13.4505 7.89401 12.6218 7.55078 11.7578 7.55078H6.87109V19.7676H12.5723C13.2203 19.7676 13.8418 20.025 14.3 20.4832C14.7582 20.9414 15.0156 21.5629 15.0156 22.2109M15.0156 10.8086V22.2109M15.0156 10.8086C15.0156 9.94457 15.3589 9.11593 15.9698 8.50497C16.5808 7.89401 17.4094 7.55078 18.2734 7.55078H23.1602V19.7676H17.459C16.811 19.7676 16.1895 20.025 15.7313 20.4832C15.273 20.9414 15.0156 21.5629 15.0156 22.2109" stroke="#FFFBF7" stroke-width="1.62891" stroke-linecap="round" stroke-linejoin="round"/>
</svg>
