<svg width="31" height="29" viewBox="0 0 31 29" fill="none" xmlns="http://www.w3.org/2000/svg">
<rect width="31" height="29" rx="5" fill="#D6CB01"/>
<path d="M22.668 14.8809C22.668 18.927 19.3879 22.207 15.3418 22.207M22.668 14.8809C22.668 10.8347 19.3879 7.55469 15.3418 7.55469M22.668 14.8809H8.01562M15.3418 22.207C11.2957 22.207 8.01562 18.927 8.01562 14.8809M15.3418 22.207C17.1743 20.2009 18.2157 17.5974 18.2723 14.8809C18.2157 12.1643 17.1743 9.56085 15.3418 7.55469M15.3418 22.207C13.5093 20.2009 12.4679 17.5974 12.4113 14.8809C12.4679 12.1643 13.5093 9.56085 15.3418 7.55469M8.01562 14.8809C8.01562 10.8347 11.2957 7.55469 15.3418 7.55469" stroke="#FFFBF7" stroke-width="1.46523" stroke-linecap="round" stroke-linejoin="round"/>
</svg>
