<svg width="31" height="29" viewBox="0 0 31 29" fill="none" xmlns="http://www.w3.org/2000/svg">
<rect width="31" height="29" rx="5" fill="#009A3B"/>
<g clip-path="url(#clip0_240_1317)">
<path d="M6.30363 20.3668L6.25563 20.1028C6.85563 19.7428 7.40363 19.3708 7.89963 18.9868C8.39563 18.5948 8.78763 18.2348 9.07563 17.9068C9.37163 17.5788 9.51963 17.3228 9.51963 17.1388C9.51963 17.0828 9.51163 17.0508 9.49563 17.0428C9.23163 17.2268 8.96363 17.3188 8.69163 17.3188C8.41163 17.3188 8.16763 17.2308 7.95963 17.0548C7.75163 16.8708 7.64763 16.6548 7.64763 16.4068C7.64763 16.1508 7.72763 15.8548 7.88763 15.5188L8.28363 14.7268C8.47563 14.3508 8.74763 14.1628 9.09962 14.1628C9.80363 14.1628 10.1556 14.8308 10.1556 16.1668C10.1556 16.4628 10.1196 16.7948 10.0476 17.1628C9.98363 17.5228 9.86763 17.8908 9.69963 18.2668C9.53963 18.6348 9.31963 18.9828 9.03963 19.3108C8.91963 19.3908 8.71163 19.4948 8.41563 19.6228C8.11963 19.7508 7.78363 19.8828 7.40763 20.0188C7.03163 20.1548 6.66363 20.2708 6.30363 20.3668ZM10.5621 20.3548L10.5381 20.0908C10.7381 19.9868 10.9661 19.8588 11.2221 19.7068C11.4861 19.5548 11.7541 19.3868 12.0261 19.2028C12.2981 19.0188 12.5461 18.8348 12.7701 18.6508C13.0021 18.4668 13.1901 18.2908 13.3341 18.1228C13.4781 17.9548 13.5501 17.8068 13.5501 17.6788C13.5501 17.4948 13.4261 17.2548 13.1781 16.9588C12.9301 16.6548 12.5021 16.3628 11.8941 16.0828C11.9261 15.9788 11.9821 15.8348 12.0621 15.6508C12.1501 15.4668 12.2461 15.2708 12.3501 15.0628C12.4541 14.8468 12.5541 14.6468 12.6501 14.4628C12.7541 14.2788 12.8421 14.1388 12.9141 14.0428H13.0461C13.2701 14.1788 13.4821 14.3548 13.6821 14.5708C13.8901 14.7868 14.0581 15.0428 14.1861 15.3388C14.3221 15.6348 14.3901 15.9748 14.3901 16.3588C14.3901 16.6548 14.3501 16.9708 14.2701 17.3068C14.1901 17.6428 14.0741 17.9708 13.9221 18.2908C13.7781 18.6028 13.6101 18.8788 13.4181 19.1188C13.2341 19.3588 13.0341 19.5348 12.8181 19.6468C12.4021 19.8548 11.6501 20.0908 10.5621 20.3548ZM14.1598 19.9948L14.1118 19.7188C14.3678 19.5828 14.6518 19.3988 14.9638 19.1668C15.2838 18.9268 15.5998 18.6748 15.9118 18.4108C16.2318 18.1388 16.5198 17.8828 16.7758 17.6428C17.0318 17.3948 17.2238 17.1948 17.3518 17.0428C17.4798 16.8908 17.6118 16.6828 17.7478 16.4188C17.8838 16.1468 18.0198 15.8468 18.1558 15.5188C18.2998 15.1828 18.4318 14.8428 18.5518 14.4988L18.9118 14.5588C18.6078 15.8148 18.2678 16.8348 17.8918 17.6188C17.5238 18.4028 17.1638 18.9348 16.8118 19.2148C16.5958 19.3268 16.2638 19.4468 15.8158 19.5748C15.3758 19.7028 14.8238 19.8428 14.1598 19.9948ZM21.0268 18.3388L20.7628 18.2788C20.8028 18.0948 20.8428 17.8028 20.8828 17.4028C20.9228 17.0028 20.9548 16.5148 20.9788 15.9388L21.0868 13.0708C21.1028 12.7108 21.1188 12.3948 21.1348 12.1228C21.1588 11.8508 21.2028 11.5828 21.2668 11.3188C21.3308 11.0468 21.4268 10.7388 21.5548 10.3948C21.6908 10.0508 21.8708 9.62678 22.0948 9.12278L22.3468 9.21878C22.2828 9.37878 22.2268 9.66278 22.1788 10.0708C22.1388 10.4708 22.0988 10.9948 22.0588 11.6428L21.8548 15.0268C21.8228 15.5388 21.7388 16.0708 21.6028 16.6228C21.4748 17.1748 21.2828 17.7468 21.0268 18.3388Z" fill="white"/>
</g>
<defs>
<clipPath id="clip0_240_1317">
<rect width="24" height="24" fill="white" transform="translate(3.5)"/>
</clipPath>
</defs>
</svg>
