<svg width="53" height="53" viewBox="0 0 53 53" fill="none" xmlns="http://www.w3.org/2000/svg">
<rect width="52.8" height="52.8" rx="9.6" fill="#2ABAF2" fill-opacity="0.15"/>
<path d="M37.1996 25.9629V28.7992C37.1996 31.4321 36.0618 33.9571 34.0364 35.8189C32.011 37.6806 29.2639 38.7265 26.3996 38.7265M26.3996 38.7265C23.5353 38.7265 20.7882 37.6806 18.7629 35.8189C16.7375 33.9571 15.5996 31.4321 15.5996 28.7992V25.9629M26.3996 38.7265V44.3992M20.2282 44.3992H32.571M26.3996 13.1992C25.172 13.1992 23.9947 13.6475 23.1267 14.4453C22.2587 15.2432 21.771 16.3254 21.771 17.4538V28.7992C21.771 29.9276 22.2587 31.0098 23.1267 31.8076C23.9947 32.6055 25.172 33.0538 26.3996 33.0538C27.6272 33.0538 28.8045 32.6055 29.6725 31.8076C30.5405 31.0098 31.0282 29.9276 31.0282 28.7992V17.4538C31.0282 16.3254 30.5405 15.2432 29.6725 14.4453C28.8045 13.6475 27.6272 13.1992 26.3996 13.1992Z" stroke="#2ABAF2" stroke-width="2.4" stroke-linecap="round" stroke-linejoin="round"/>
</svg>
