<svg width="31" height="40" viewBox="0 0 31 40" fill="none" xmlns="http://www.w3.org/2000/svg">
<path d="M28.3077 16.3281V19.7827C28.3077 22.9894 26.9218 26.0647 24.455 28.3322C21.9882 30.5997 18.6425 31.8736 15.1538 31.8736M15.1538 31.8736C11.6652 31.8736 8.3195 30.5997 5.85267 28.3322C3.38585 26.0647 2 22.9894 2 19.7827V16.3281M15.1538 31.8736V38.7827M7.63736 38.7827H22.6703M15.1538 0.782654C13.6587 0.782654 12.2248 1.32859 11.1676 2.30037C10.1104 3.27215 9.51648 4.59017 9.51648 5.96447V19.7827C9.51648 21.157 10.1104 22.475 11.1676 23.4468C12.2248 24.4185 13.6587 24.9645 15.1538 24.9645C16.649 24.9645 18.0829 24.4185 19.1401 23.4468C20.1973 22.475 20.7912 21.157 20.7912 19.7827V5.96447C20.7912 4.59017 20.1973 3.27215 19.1401 2.30037C18.0829 1.32859 16.649 0.782654 15.1538 0.782654Z" stroke="#1A1A1A" stroke-width="1.56532" stroke-linecap="round" stroke-linejoin="round"/>
</svg>
