<svg width="24" height="24" viewBox="0 0 24 24" fill="none" xmlns="http://www.w3.org/2000/svg">
<g clip-path="url(#clip0_2017_3049)">
<path d="M22.94 1.05909C22.2602 0.380283 21.3387 -0.000976562 20.378 -0.000976562C19.4173 -0.000976562 18.4958 0.380283 17.816 1.05909L0 18.8751V23.9991H5.124L22.94 6.18309C23.6186 5.50311 23.9997 4.58172 23.9997 3.62109C23.9997 2.66046 23.6186 1.73906 22.94 1.05909ZM4.3 21.9991H2V19.6991L15.31 6.39909L17.61 8.69909L4.3 21.9991ZM21.526 4.76909L19.019 7.27609L16.724 4.97609L19.23 2.47309C19.535 2.16809 19.9487 1.99674 20.38 1.99674C20.8113 1.99674 21.225 2.16809 21.53 2.47309C21.835 2.77809 22.0063 3.19175 22.0063 3.62309C22.0063 4.05442 21.835 4.46809 21.53 4.77309L21.526 4.76909Z" fill="#444444"/>
</g>
<defs>
<clipPath id="clip0_2017_3049">
<rect width="24" height="24" fill="white"/>
</clipPath>
</defs>
</svg>
