<svg width="207" height="39" viewBox="0 0 207 39" fill="none" xmlns="http://www.w3.org/2000/svg">
<g clip-path="url(#clip0_122_220)">
<rect width="207" height="39" rx="19.5" fill="#F45858" fill-opacity="0.16"/>
<path d="M48.4167 16.2501L41.9167 22.7501M41.9167 16.2501L48.4167 22.7501M35.4167 11.9167L30 16.2501H25.6667V22.7501H30L35.4167 27.0834V11.9167Z" stroke="#1A1A1A" stroke-width="2" stroke-linecap="round" stroke-linejoin="round"/>
<path d="M68.028 24.32C67.7507 24.32 67.4947 24.2133 67.26 24C67.0467 23.808 66.94 23.5733 66.94 23.296V12.96C66.94 12.384 67.132 11.9467 67.516 11.648C67.9213 11.3493 68.348 11.2 68.796 11.2H71.932C72.6573 11.2 73.3293 11.36 73.948 11.68C74.588 11.9787 75.1 12.416 75.484 12.992C75.868 13.5467 76.06 14.2187 76.06 15.008C76.06 15.7547 75.836 16.4693 75.388 17.152C74.9613 17.8133 74.4067 18.2613 73.724 18.496C74.0227 18.624 74.3 18.8373 74.556 19.136C74.8333 19.4133 75.0787 19.7867 75.292 20.256L76.444 22.848C76.508 22.976 76.54 23.1147 76.54 23.264C76.54 23.648 76.412 23.9253 76.156 24.096C75.9213 24.2667 75.676 24.352 75.42 24.352C74.9933 24.352 74.6947 24.1493 74.524 23.744L73.212 20.672C72.9347 20.0533 72.5827 19.6267 72.156 19.392C71.7293 19.1573 71.26 19.04 70.748 19.04H69.948C69.3933 19.04 69.116 19.36 69.116 20V23.296C69.116 23.5733 69.0093 23.808 68.796 24C68.5827 24.2133 68.3267 24.32 68.028 24.32ZM69.82 17.12H71.612C72.1453 17.12 72.6573 16.9493 73.148 16.608C73.66 16.2453 73.916 15.7333 73.916 15.072C73.916 14.432 73.6813 13.952 73.212 13.632C72.764 13.312 72.2733 13.152 71.74 13.152H69.916C69.3827 13.152 69.116 13.4187 69.116 13.952V16.384C69.116 16.8747 69.3507 17.12 69.82 17.12ZM82.2905 24.32C80.6905 24.32 79.4425 23.8613 78.5465 22.944C77.6505 22.0267 77.2025 20.7893 77.2025 19.232C77.2025 17.8667 77.6505 16.7467 78.5465 15.872C79.4638 14.9973 80.6372 14.56 82.0665 14.56C83.4532 14.56 84.5625 14.9653 85.3945 15.776C86.2265 16.5653 86.6425 17.5467 86.6425 18.72C86.6425 19.1893 86.5145 19.5413 86.2585 19.776C86.0238 20.0107 85.7145 20.128 85.3305 20.128H79.7625C79.5492 20.128 79.4745 20.2453 79.5385 20.48C79.7092 21.0773 80.0505 21.5467 80.5625 21.888C81.0958 22.208 81.6932 22.368 82.3545 22.368C82.8452 22.368 83.3145 22.304 83.7625 22.176C84.2318 22.048 84.6372 21.856 84.9785 21.6C85.0852 21.5147 85.2238 21.472 85.3945 21.472C85.6292 21.472 85.8425 21.5787 86.0345 21.792C86.2265 21.984 86.3225 22.2187 86.3225 22.496C86.3225 22.624 86.3012 22.752 86.2585 22.88C86.2158 23.008 86.1198 23.136 85.9705 23.264C85.4158 23.6693 84.8185 23.9467 84.1785 24.096C83.5598 24.2453 82.9305 24.32 82.2905 24.32ZM84.1465 18.464C84.2745 18.464 84.3385 18.4 84.3385 18.272C84.3385 17.7813 84.1145 17.3547 83.6665 16.992C83.2398 16.6293 82.7065 16.448 82.0665 16.448C81.5118 16.448 80.9785 16.5973 80.4665 16.896C79.9758 17.1947 79.6772 17.5893 79.5705 18.08C79.5705 18.08 79.5705 18.0907 79.5705 18.112C79.5492 18.1973 79.5385 18.272 79.5385 18.336C79.5598 18.4 79.6558 18.432 79.8265 18.432L84.1465 18.464ZM93.0018 24.32C92.0844 24.32 91.2631 24.1067 90.5378 23.68C89.8124 23.2533 89.2471 22.6667 88.8418 21.92C88.4364 21.152 88.2338 20.2987 88.2338 19.36C88.2338 18.4427 88.4364 17.6213 88.8418 16.896C89.2471 16.1707 89.8124 15.6053 90.5378 15.2C91.2631 14.7733 92.0844 14.56 93.0018 14.56C93.5991 14.56 94.1324 14.6667 94.6018 14.88C95.0711 15.072 95.4764 15.328 95.8177 15.648C95.8604 15.3493 95.9884 15.1253 96.2018 14.976C96.4151 14.8053 96.6498 14.72 96.9058 14.72C97.1831 14.72 97.4284 14.816 97.6418 15.008C97.8764 15.1787 97.9938 15.4453 97.9938 15.808V23.328C97.9938 23.648 97.8764 23.8933 97.6418 24.064C97.4284 24.2347 97.1831 24.32 96.9058 24.32C96.6284 24.32 96.3724 24.2347 96.1378 24.064C95.9244 23.8933 95.8177 23.648 95.8177 23.328V23.2C95.4764 23.5413 95.0711 23.808 94.6018 24C94.1324 24.2133 93.5991 24.32 93.0018 24.32ZM93.1938 22.336C94.0044 22.336 94.6444 22.0693 95.1138 21.536C95.5831 20.9813 95.8177 20.256 95.8177 19.36C95.8177 18.5067 95.5831 17.824 95.1138 17.312C94.6444 16.8 94.0044 16.544 93.1938 16.544C92.3618 16.544 91.6898 16.8 91.1778 17.312C90.6658 17.824 90.4098 18.5067 90.4098 19.36C90.4098 20.256 90.6658 20.9813 91.1778 21.536C91.6898 22.0693 92.3618 22.336 93.1938 22.336ZM104.533 24.32C103.616 24.32 102.794 24.1067 102.069 23.68C101.344 23.2533 100.778 22.6667 100.373 21.92C99.9677 21.152 99.765 20.2987 99.765 19.36C99.765 18.4427 99.9677 17.6213 100.373 16.896C100.778 16.1707 101.344 15.6053 102.069 15.2C102.794 14.7733 103.616 14.56 104.533 14.56C105.13 14.56 105.664 14.656 106.133 14.848C106.602 15.04 107.008 15.3067 107.349 15.648V11.168C107.349 10.8053 107.456 10.5387 107.669 10.368C107.904 10.176 108.16 10.08 108.437 10.08C108.714 10.08 108.96 10.176 109.173 10.368C109.408 10.5387 109.525 10.8053 109.525 11.168V23.328C109.525 23.648 109.408 23.8933 109.173 24.064C108.96 24.2347 108.714 24.32 108.437 24.32C108.16 24.32 107.904 24.2347 107.669 24.064C107.456 23.8933 107.349 23.648 107.349 23.328V23.2C107.008 23.5413 106.602 23.808 106.133 24C105.664 24.2133 105.13 24.32 104.533 24.32ZM104.725 22.336C105.536 22.336 106.176 22.0693 106.645 21.536C107.114 20.9813 107.349 20.256 107.349 19.36C107.349 18.5067 107.114 17.824 106.645 17.312C106.176 16.8 105.536 16.544 104.725 16.544C103.893 16.544 103.221 16.8 102.709 17.312C102.197 17.824 101.941 18.5067 101.941 19.36C101.941 20.256 102.197 20.9813 102.709 21.536C103.221 22.0693 103.893 22.336 104.725 22.336ZM122.471 24.32C121.553 24.32 120.732 24.1067 120.007 23.68C119.281 23.2533 118.716 22.6667 118.311 21.92C117.905 21.152 117.703 20.2987 117.703 19.36C117.703 18.4427 117.905 17.6213 118.311 16.896C118.716 16.1707 119.281 15.6053 120.007 15.2C120.732 14.7733 121.553 14.56 122.471 14.56C123.068 14.56 123.601 14.6667 124.071 14.88C124.54 15.072 124.945 15.328 125.286 15.648C125.329 15.3493 125.457 15.1253 125.671 14.976C125.884 14.8053 126.119 14.72 126.375 14.72C126.652 14.72 126.897 14.816 127.111 15.008C127.345 15.1787 127.463 15.4453 127.463 15.808V23.328C127.463 23.648 127.345 23.8933 127.111 24.064C126.897 24.2347 126.652 24.32 126.375 24.32C126.097 24.32 125.841 24.2347 125.607 24.064C125.393 23.8933 125.286 23.648 125.286 23.328V23.2C124.945 23.5413 124.54 23.808 124.071 24C123.601 24.2133 123.068 24.32 122.471 24.32ZM122.663 22.336C123.473 22.336 124.113 22.0693 124.583 21.536C125.052 20.9813 125.286 20.256 125.286 19.36C125.286 18.5067 125.052 17.824 124.583 17.312C124.113 16.8 123.473 16.544 122.663 16.544C121.831 16.544 121.159 16.8 120.647 17.312C120.135 17.824 119.879 18.5067 119.879 19.36C119.879 20.256 120.135 20.9813 120.647 21.536C121.159 22.0693 121.831 22.336 122.663 22.336ZM130.962 24.32C130.684 24.32 130.428 24.2347 130.194 24.064C129.98 23.8933 129.874 23.648 129.874 23.328V11.168C129.874 10.8053 129.98 10.5387 130.194 10.368C130.428 10.176 130.684 10.08 130.962 10.08C131.239 10.08 131.484 10.176 131.698 10.368C131.932 10.5387 132.05 10.8053 132.05 11.168V23.328C132.05 23.648 131.932 23.8933 131.698 24.064C131.484 24.2347 131.239 24.32 130.962 24.32ZM139.006 24.32C138.068 24.32 137.214 24.1067 136.446 23.68C135.7 23.2533 135.113 22.6667 134.686 21.92C134.26 21.152 134.046 20.2987 134.046 19.36C134.046 18.4427 134.26 17.6213 134.686 16.896C135.113 16.1707 135.7 15.6053 136.446 15.2C137.214 14.7733 138.068 14.56 139.006 14.56C139.945 14.56 140.788 14.7733 141.534 15.2C142.281 15.6053 142.868 16.1707 143.294 16.896C143.742 17.6213 143.966 18.4427 143.966 19.36C143.966 20.2987 143.742 21.152 143.294 21.92C142.868 22.6667 142.281 23.2533 141.534 23.68C140.788 24.1067 139.945 24.32 139.006 24.32ZM139.006 22.336C139.838 22.336 140.51 22.0693 141.022 21.536C141.534 20.9813 141.79 20.256 141.79 19.36C141.79 18.5067 141.534 17.824 141.022 17.312C140.51 16.8 139.838 16.544 139.006 16.544C138.153 16.544 137.47 16.8 136.958 17.312C136.468 17.824 136.222 18.5067 136.222 19.36C136.222 20.256 136.468 20.9813 136.958 21.536C137.47 22.0693 138.153 22.336 139.006 22.336ZM152.498 15.616C152.498 15.3173 152.594 15.072 152.786 14.88C152.999 14.6667 153.266 14.56 153.586 14.56C153.884 14.56 154.14 14.6667 154.354 14.88C154.567 15.072 154.674 15.3173 154.674 15.616V20.128C154.674 21.088 154.46 21.8773 154.034 22.496C153.607 23.1147 153.052 23.5733 152.37 23.872C151.687 24.1707 150.962 24.32 150.194 24.32C149.426 24.32 148.7 24.1707 148.018 23.872C147.335 23.5733 146.78 23.1147 146.354 22.496C145.927 21.8773 145.714 21.088 145.714 20.128V15.616C145.714 15.3173 145.81 15.072 146.002 14.88C146.215 14.6667 146.482 14.56 146.802 14.56C147.1 14.56 147.356 14.6667 147.57 14.88C147.783 15.072 147.89 15.3173 147.89 15.616V20.128C147.89 20.9173 148.124 21.4827 148.594 21.824C149.063 22.1653 149.596 22.336 150.194 22.336C150.812 22.336 151.346 22.1653 151.794 21.824C152.263 21.4827 152.498 20.9173 152.498 20.128V15.616ZM161.189 24.32C160.272 24.32 159.451 24.1067 158.725 23.68C158 23.2533 157.435 22.6667 157.029 21.92C156.624 21.152 156.421 20.2987 156.421 19.36C156.421 18.4427 156.624 17.6213 157.029 16.896C157.435 16.1707 158 15.6053 158.725 15.2C159.451 14.7733 160.272 14.56 161.189 14.56C161.787 14.56 162.32 14.656 162.789 14.848C163.259 15.04 163.664 15.3067 164.005 15.648V11.168C164.005 10.8053 164.112 10.5387 164.325 10.368C164.56 10.176 164.816 10.08 165.093 10.08C165.371 10.08 165.616 10.176 165.829 10.368C166.064 10.5387 166.181 10.8053 166.181 11.168V23.328C166.181 23.648 166.064 23.8933 165.829 24.064C165.616 24.2347 165.371 24.32 165.093 24.32C164.816 24.32 164.56 24.2347 164.325 24.064C164.112 23.8933 164.005 23.648 164.005 23.328V23.2C163.664 23.5413 163.259 23.808 162.789 24C162.32 24.2133 161.787 24.32 161.189 24.32ZM161.381 22.336C162.192 22.336 162.832 22.0693 163.301 21.536C163.771 20.9813 164.005 20.256 164.005 19.36C164.005 18.5067 163.771 17.824 163.301 17.312C162.832 16.8 162.192 16.544 161.381 16.544C160.549 16.544 159.877 16.8 159.365 17.312C158.853 17.824 158.597 18.5067 158.597 19.36C158.597 20.256 158.853 20.9813 159.365 21.536C159.877 22.0693 160.549 22.336 161.381 22.336Z" fill="#1A1A1A"/>
</g>
<rect x="0.5" y="0.5" width="206" height="38" rx="19" stroke="#F45858" stroke-opacity="0.16"/>
<defs>
<clipPath id="clip0_122_220">
<rect width="207" height="39" rx="19.5" fill="white"/>
</clipPath>
</defs>
</svg>
