<svg width="207" height="39" viewBox="0 0 207 39" fill="none" xmlns="http://www.w3.org/2000/svg">
<rect x="0.5" y="0.5" width="206" height="38" rx="19" fill="#2AF28B" fill-opacity="0.15"/>
<rect x="0.5" y="0.5" width="206" height="38" rx="19" stroke="#D1E8DC"/>
<path d="M41.1592 11.8408C43.1901 13.8724 44.331 16.6274 44.331 19.5C44.331 22.3726 43.1901 25.1276 41.1592 27.1592M37.335 15.665C38.3505 16.6808 38.9209 18.0583 38.9209 19.4946C38.9209 20.9309 38.3505 22.3084 37.335 23.3242M32.4167 11.9167L27 16.25H22.6667V22.75H27L32.4167 27.0833V11.9167Z" stroke="#1A1A1A" stroke-width="2" stroke-linecap="round" stroke-linejoin="round"/>
<path d="M71.1218 24.32C70.8444 24.32 70.5884 24.2133 70.3538 24C70.1404 23.808 70.0338 23.5733 70.0338 23.296V12.96C70.0338 12.384 70.2258 11.9467 70.6098 11.648C71.0151 11.3493 71.4418 11.2 71.8898 11.2H75.0258C75.7511 11.2 76.4231 11.36 77.0417 11.68C77.6817 11.9787 78.1938 12.416 78.5778 12.992C78.9618 13.5467 79.1538 14.2187 79.1538 15.008C79.1538 15.7547 78.9298 16.4693 78.4818 17.152C78.0551 17.8133 77.5004 18.2613 76.8177 18.496C77.1164 18.624 77.3938 18.8373 77.6498 19.136C77.9271 19.4133 78.1724 19.7867 78.3858 20.256L79.5378 22.848C79.6018 22.976 79.6338 23.1147 79.6338 23.264C79.6338 23.648 79.5058 23.9253 79.2498 24.096C79.0151 24.2667 78.7698 24.352 78.5138 24.352C78.0871 24.352 77.7884 24.1493 77.6178 23.744L76.3058 20.672C76.0284 20.0533 75.6764 19.6267 75.2498 19.392C74.8231 19.1573 74.3538 19.04 73.8418 19.04H73.0418C72.4871 19.04 72.2098 19.36 72.2098 20V23.296C72.2098 23.5733 72.1031 23.808 71.8898 24C71.6764 24.2133 71.4204 24.32 71.1218 24.32ZM72.9138 17.12H74.7058C75.2391 17.12 75.7511 16.9493 76.2418 16.608C76.7538 16.2453 77.0098 15.7333 77.0098 15.072C77.0098 14.432 76.7751 13.952 76.3058 13.632C75.8578 13.312 75.3671 13.152 74.8338 13.152H73.0098C72.4764 13.152 72.2098 13.4187 72.2098 13.952V16.384C72.2098 16.8747 72.4444 17.12 72.9138 17.12ZM85.3843 24.32C83.7843 24.32 82.5363 23.8613 81.6403 22.944C80.7443 22.0267 80.2963 20.7893 80.2963 19.232C80.2963 17.8667 80.7443 16.7467 81.6403 15.872C82.5576 14.9973 83.7309 14.56 85.1603 14.56C86.5469 14.56 87.6563 14.9653 88.4883 15.776C89.3203 16.5653 89.7363 17.5467 89.7363 18.72C89.7363 19.1893 89.6083 19.5413 89.3523 19.776C89.1176 20.0107 88.8083 20.128 88.4243 20.128H82.8563C82.6429 20.128 82.5683 20.2453 82.6323 20.48C82.8029 21.0773 83.1443 21.5467 83.6562 21.888C84.1896 22.208 84.7869 22.368 85.4483 22.368C85.9389 22.368 86.4083 22.304 86.8563 22.176C87.3256 22.048 87.7309 21.856 88.0723 21.6C88.1789 21.5147 88.3176 21.472 88.4883 21.472C88.7229 21.472 88.9363 21.5787 89.1283 21.792C89.3203 21.984 89.4163 22.2187 89.4163 22.496C89.4163 22.624 89.3949 22.752 89.3523 22.88C89.3096 23.008 89.2136 23.136 89.0642 23.264C88.5096 23.6693 87.9123 23.9467 87.2723 24.096C86.6536 24.2453 86.0243 24.32 85.3843 24.32ZM87.2403 18.464C87.3683 18.464 87.4323 18.4 87.4323 18.272C87.4323 17.7813 87.2083 17.3547 86.7603 16.992C86.3336 16.6293 85.8003 16.448 85.1603 16.448C84.6056 16.448 84.0723 16.5973 83.5603 16.896C83.0696 17.1947 82.7709 17.5893 82.6643 18.08C82.6643 18.08 82.6643 18.0907 82.6643 18.112C82.6429 18.1973 82.6323 18.272 82.6323 18.336C82.6536 18.4 82.7496 18.432 82.9203 18.432L87.2403 18.464ZM96.0955 24.32C95.1782 24.32 94.3568 24.1067 93.6315 23.68C92.9062 23.2533 92.3408 22.6667 91.9355 21.92C91.5302 21.152 91.3275 20.2987 91.3275 19.36C91.3275 18.4427 91.5302 17.6213 91.9355 16.896C92.3408 16.1707 92.9062 15.6053 93.6315 15.2C94.3568 14.7733 95.1782 14.56 96.0955 14.56C96.6928 14.56 97.2262 14.6667 97.6955 14.88C98.1648 15.072 98.5702 15.328 98.9115 15.648C98.9542 15.3493 99.0822 15.1253 99.2955 14.976C99.5088 14.8053 99.7435 14.72 99.9995 14.72C100.277 14.72 100.522 14.816 100.736 15.008C100.97 15.1787 101.088 15.4453 101.088 15.808V23.328C101.088 23.648 100.97 23.8933 100.736 24.064C100.522 24.2347 100.277 24.32 99.9995 24.32C99.7222 24.32 99.4662 24.2347 99.2315 24.064C99.0182 23.8933 98.9115 23.648 98.9115 23.328V23.2C98.5702 23.5413 98.1648 23.808 97.6955 24C97.2262 24.2133 96.6928 24.32 96.0955 24.32ZM96.2875 22.336C97.0982 22.336 97.7382 22.0693 98.2075 21.536C98.6768 20.9813 98.9115 20.256 98.9115 19.36C98.9115 18.5067 98.6768 17.824 98.2075 17.312C97.7382 16.8 97.0982 16.544 96.2875 16.544C95.4555 16.544 94.7835 16.8 94.2715 17.312C93.7595 17.824 93.5035 18.5067 93.5035 19.36C93.5035 20.256 93.7595 20.9813 94.2715 21.536C94.7835 22.0693 95.4555 22.336 96.2875 22.336ZM107.627 24.32C106.709 24.32 105.888 24.1067 105.163 23.68C104.437 23.2533 103.872 22.6667 103.467 21.92C103.061 21.152 102.859 20.2987 102.859 19.36C102.859 18.4427 103.061 17.6213 103.467 16.896C103.872 16.1707 104.437 15.6053 105.163 15.2C105.888 14.7733 106.709 14.56 107.627 14.56C108.224 14.56 108.757 14.656 109.227 14.848C109.696 15.04 110.101 15.3067 110.443 15.648V11.168C110.443 10.8053 110.549 10.5387 110.763 10.368C110.997 10.176 111.253 10.08 111.531 10.08C111.808 10.08 112.053 10.176 112.267 10.368C112.501 10.5387 112.619 10.8053 112.619 11.168V23.328C112.619 23.648 112.501 23.8933 112.267 24.064C112.053 24.2347 111.808 24.32 111.531 24.32C111.253 24.32 110.997 24.2347 110.763 24.064C110.549 23.8933 110.443 23.648 110.443 23.328V23.2C110.101 23.5413 109.696 23.808 109.227 24C108.757 24.2133 108.224 24.32 107.627 24.32ZM107.819 22.336C108.629 22.336 109.269 22.0693 109.739 21.536C110.208 20.9813 110.443 20.256 110.443 19.36C110.443 18.5067 110.208 17.824 109.739 17.312C109.269 16.8 108.629 16.544 107.819 16.544C106.987 16.544 106.315 16.8 105.803 17.312C105.291 17.824 105.035 18.5067 105.035 19.36C105.035 20.256 105.291 20.9813 105.803 21.536C106.315 22.0693 106.987 22.336 107.819 22.336ZM125.564 24.32C124.647 24.32 123.826 24.1067 123.1 23.68C122.375 23.2533 121.81 22.6667 121.404 21.92C120.999 21.152 120.796 20.2987 120.796 19.36C120.796 18.4427 120.999 17.6213 121.404 16.896C121.81 16.1707 122.375 15.6053 123.1 15.2C123.826 14.7733 124.647 14.56 125.564 14.56C126.162 14.56 126.695 14.6667 127.164 14.88C127.634 15.072 128.039 15.328 128.38 15.648C128.423 15.3493 128.551 15.1253 128.764 14.976C128.978 14.8053 129.212 14.72 129.468 14.72C129.746 14.72 129.991 14.816 130.204 15.008C130.439 15.1787 130.556 15.4453 130.556 15.808V23.328C130.556 23.648 130.439 23.8933 130.204 24.064C129.991 24.2347 129.746 24.32 129.468 24.32C129.191 24.32 128.935 24.2347 128.7 24.064C128.487 23.8933 128.38 23.648 128.38 23.328V23.2C128.039 23.5413 127.634 23.808 127.164 24C126.695 24.2133 126.162 24.32 125.564 24.32ZM125.756 22.336C126.567 22.336 127.207 22.0693 127.676 21.536C128.146 20.9813 128.38 20.256 128.38 19.36C128.38 18.5067 128.146 17.824 127.676 17.312C127.207 16.8 126.567 16.544 125.756 16.544C124.924 16.544 124.252 16.8 123.74 17.312C123.228 17.824 122.972 18.5067 122.972 19.36C122.972 20.256 123.228 20.9813 123.74 21.536C124.252 22.0693 124.924 22.336 125.756 22.336ZM134.056 24.32C133.778 24.32 133.522 24.2347 133.288 24.064C133.074 23.8933 132.968 23.648 132.968 23.328V11.168C132.968 10.8053 133.074 10.5387 133.288 10.368C133.522 10.176 133.778 10.08 134.056 10.08C134.333 10.08 134.578 10.176 134.792 10.368C135.026 10.5387 135.144 10.8053 135.144 11.168V23.328C135.144 23.648 135.026 23.8933 134.792 24.064C134.578 24.2347 134.333 24.32 134.056 24.32ZM142.1 24.32C141.161 24.32 140.308 24.1067 139.54 23.68C138.793 23.2533 138.207 22.6667 137.78 21.92C137.353 21.152 137.14 20.2987 137.14 19.36C137.14 18.4427 137.353 17.6213 137.78 16.896C138.207 16.1707 138.793 15.6053 139.54 15.2C140.308 14.7733 141.161 14.56 142.1 14.56C143.039 14.56 143.881 14.7733 144.628 15.2C145.375 15.6053 145.961 16.1707 146.388 16.896C146.836 17.6213 147.06 18.4427 147.06 19.36C147.06 20.2987 146.836 21.152 146.388 21.92C145.961 22.6667 145.375 23.2533 144.628 23.68C143.881 24.1067 143.039 24.32 142.1 24.32ZM142.1 22.336C142.932 22.336 143.604 22.0693 144.116 21.536C144.628 20.9813 144.884 20.256 144.884 19.36C144.884 18.5067 144.628 17.824 144.116 17.312C143.604 16.8 142.932 16.544 142.1 16.544C141.247 16.544 140.564 16.8 140.052 17.312C139.561 17.824 139.316 18.5067 139.316 19.36C139.316 20.256 139.561 20.9813 140.052 21.536C140.564 22.0693 141.247 22.336 142.1 22.336ZM155.592 15.616C155.592 15.3173 155.688 15.072 155.88 14.88C156.093 14.6667 156.36 14.56 156.68 14.56C156.978 14.56 157.234 14.6667 157.448 14.88C157.661 15.072 157.768 15.3173 157.768 15.616V20.128C157.768 21.088 157.554 21.8773 157.128 22.496C156.701 23.1147 156.146 23.5733 155.464 23.872C154.781 24.1707 154.056 24.32 153.288 24.32C152.52 24.32 151.794 24.1707 151.112 23.872C150.429 23.5733 149.874 23.1147 149.448 22.496C149.021 21.8773 148.808 21.088 148.808 20.128V15.616C148.808 15.3173 148.904 15.072 149.096 14.88C149.309 14.6667 149.576 14.56 149.896 14.56C150.194 14.56 150.45 14.6667 150.664 14.88C150.877 15.072 150.984 15.3173 150.984 15.616V20.128C150.984 20.9173 151.218 21.4827 151.688 21.824C152.157 22.1653 152.69 22.336 153.288 22.336C153.906 22.336 154.44 22.1653 154.888 21.824C155.357 21.4827 155.592 20.9173 155.592 20.128V15.616ZM164.283 24.32C163.366 24.32 162.544 24.1067 161.819 23.68C161.094 23.2533 160.528 22.6667 160.123 21.92C159.718 21.152 159.515 20.2987 159.515 19.36C159.515 18.4427 159.718 17.6213 160.123 16.896C160.528 16.1707 161.094 15.6053 161.819 15.2C162.544 14.7733 163.366 14.56 164.283 14.56C164.88 14.56 165.414 14.656 165.883 14.848C166.352 15.04 166.758 15.3067 167.099 15.648V11.168C167.099 10.8053 167.206 10.5387 167.419 10.368C167.654 10.176 167.91 10.08 168.187 10.08C168.464 10.08 168.71 10.176 168.923 10.368C169.158 10.5387 169.275 10.8053 169.275 11.168V23.328C169.275 23.648 169.158 23.8933 168.923 24.064C168.71 24.2347 168.464 24.32 168.187 24.32C167.91 24.32 167.654 24.2347 167.419 24.064C167.206 23.8933 167.099 23.648 167.099 23.328V23.2C166.758 23.5413 166.352 23.808 165.883 24C165.414 24.2133 164.88 24.32 164.283 24.32ZM164.475 22.336C165.286 22.336 165.926 22.0693 166.395 21.536C166.864 20.9813 167.099 20.256 167.099 19.36C167.099 18.5067 166.864 17.824 166.395 17.312C165.926 16.8 165.286 16.544 164.475 16.544C163.643 16.544 162.971 16.8 162.459 17.312C161.947 17.824 161.691 18.5067 161.691 19.36C161.691 20.256 161.947 20.9813 162.459 21.536C162.971 22.0693 163.643 22.336 164.475 22.336Z" fill="#1A1A1A"/>
</svg>
