<svg preserveAspectRatio="none" width="100%" height="100%" overflow="visible" style="display: block;" viewBox="0 0 32.3333 32.3333" fill="none" xmlns="http://www.w3.org/2000/svg">
<g id="Icon">
<path d="M16.1667 20.1667C18.3758 20.1667 20.1667 18.3758 20.1667 16.1667C20.1667 13.9575 18.3758 12.1667 16.1667 12.1667C13.9575 12.1667 12.1667 13.9575 12.1667 16.1667C12.1667 18.3758 13.9575 20.1667 16.1667 20.1667Z" stroke="var(--stroke-0, #444444)" stroke-width="3" stroke-linecap="round" stroke-linejoin="round"/>
<path d="M26.0333 20.1667C25.8558 20.5688 25.8029 21.0149 25.8813 21.4475C25.9598 21.88 26.166 22.2791 26.4733 22.5933L26.5533 22.6733C26.8013 22.921 26.998 23.2151 27.1322 23.5388C27.2664 23.8626 27.3354 24.2096 27.3354 24.56C27.3354 24.9104 27.2664 25.2574 27.1322 25.5812C26.998 25.9049 26.8013 26.199 26.5533 26.4467C26.3057 26.6946 26.0116 26.8913 25.6878 27.0255C25.3641 27.1597 25.0171 27.2288 24.6667 27.2288C24.3162 27.2288 23.9692 27.1597 23.6455 27.0255C23.3218 26.8913 23.0277 26.6946 22.78 26.4467L22.7 26.3667C22.3858 26.0593 21.9866 25.8531 21.5541 25.7747C21.1216 25.6962 20.6755 25.7492 20.2733 25.9267C19.879 26.0957 19.5426 26.3763 19.3057 26.734C19.0688 27.0918 18.9417 27.511 18.94 27.94V28.1667C18.94 28.8739 18.659 29.5522 18.159 30.0523C17.6589 30.5524 16.9806 30.8333 16.2733 30.8333C15.5661 30.8333 14.8878 30.5524 14.3877 30.0523C13.8876 29.5522 13.6067 28.8739 13.6067 28.1667V28.0467C13.5963 27.6053 13.4535 27.1773 13.1967 26.8183C12.9399 26.4592 12.581 26.1857 12.1667 26.0333C11.7645 25.8558 11.3184 25.8029 10.8859 25.8813C10.4534 25.9598 10.0542 26.166 9.74 26.4733L9.66 26.5533C9.41234 26.8013 9.11824 26.998 8.79451 27.1322C8.47078 27.2664 8.12377 27.3354 7.77333 27.3354C7.42289 27.3354 7.07589 27.2664 6.75216 27.1322C6.42843 26.998 6.13433 26.8013 5.88667 26.5533C5.63873 26.3057 5.44204 26.0116 5.30784 25.6878C5.17364 25.3641 5.10457 25.0171 5.10457 24.6667C5.10457 24.3162 5.17364 23.9692 5.30784 23.6455C5.44204 23.3218 5.63873 23.0277 5.88667 22.78L5.96667 22.7C6.27405 22.3858 6.48025 21.9866 6.55867 21.5541C6.6371 21.1216 6.58415 20.6755 6.40667 20.2733C6.23765 19.879 5.95701 19.5426 5.59929 19.3057C5.24157 19.0688 4.82238 18.9417 4.39333 18.94H4.16667C3.45942 18.94 2.78115 18.659 2.28105 18.159C1.78095 17.6589 1.5 16.9806 1.5 16.2733C1.5 15.5661 1.78095 14.8878 2.28105 14.3877C2.78115 13.8876 3.45942 13.6067 4.16667 13.6067H4.28667C4.72799 13.5963 5.15601 13.4535 5.51507 13.1967C5.87412 12.9399 6.14762 12.581 6.3 12.1667C6.47749 11.7645 6.53043 11.3184 6.45201 10.8859C6.37358 10.4534 6.16738 10.0542 5.86 9.74L5.78 9.66C5.53206 9.41234 5.33537 9.11824 5.20117 8.79451C5.06698 8.47078 4.9979 8.12377 4.9979 7.77333C4.9979 7.42289 5.06698 7.07589 5.20117 6.75216C5.33537 6.42843 5.53206 6.13433 5.78 5.88667C6.02766 5.63873 6.32176 5.44204 6.64549 5.30784C6.96922 5.17364 7.31623 5.10457 7.66667 5.10457C8.01711 5.10457 8.36411 5.17364 8.68784 5.30784C9.01157 5.44204 9.30567 5.63873 9.55333 5.88667L9.63333 5.96667C9.94757 6.27405 10.3467 6.48025 10.7792 6.55867C11.2117 6.6371 11.6578 6.58415 12.06 6.40667H12.1667C12.561 6.23765 12.8974 5.95701 13.1343 5.59929C13.3712 5.24157 13.4983 4.82238 13.5 4.39333V4.16667C13.5 3.45942 13.781 2.78115 14.281 2.28105C14.7811 1.78095 15.4594 1.5 16.1667 1.5C16.8739 1.5 17.5522 1.78095 18.0523 2.28105C18.5524 2.78115 18.8333 3.45942 18.8333 4.16667V4.28667C18.835 4.71572 18.9622 5.1349 19.1991 5.49262C19.436 5.85034 19.7723 6.13098 20.1667 6.3C20.5688 6.47749 21.0149 6.53043 21.4475 6.45201C21.88 6.37358 22.2791 6.16738 22.5933 5.86L22.6733 5.78C22.921 5.53206 23.2151 5.33537 23.5388 5.20117C23.8626 5.06698 24.2096 4.9979 24.56 4.9979C24.9104 4.9979 25.2574 5.06698 25.5812 5.20117C25.9049 5.33537 26.199 5.53206 26.4467 5.78C26.6946 6.02766 26.8913 6.32176 27.0255 6.64549C27.1597 6.96922 27.2288 7.31623 27.2288 7.66667C27.2288 8.01711 27.1597 8.36411 27.0255 8.68784C26.8913 9.01157 26.6946 9.30567 26.4467 9.55333L26.3667 9.63333C26.0593 9.94757 25.8531 10.3467 25.7747 10.7792C25.6962 11.2117 25.7492 11.6578 25.9267 12.06V12.1667C26.0957 12.561 26.3763 12.8974 26.734 13.1343C27.0918 13.3712 27.511 13.4983 27.94 13.5H28.1667C28.8739 13.5 29.5522 13.781 30.0523 14.281C30.5524 14.7811 30.8333 15.4594 30.8333 16.1667C30.8333 16.8739 30.5524 17.5522 30.0523 18.0523C29.5522 18.5524 28.8739 18.8333 28.1667 18.8333H28.0467C27.6176 18.835 27.1984 18.9622 26.8407 19.1991C26.483 19.436 26.2023 19.7723 26.0333 20.1667Z" stroke="var(--stroke-0, #444444)" stroke-width="3" stroke-linecap="round" stroke-linejoin="round"/>
</g>
</svg>
