<svg width="24" height="4" viewBox="0 0 24 4" fill="none" xmlns="http://www.w3.org/2000/svg">
<path d="M2 3.99999C3.10457 3.99999 4 3.10456 4 2C4 0.895429 3.10457 0 2 0C0.89543 0 0 0.895429 0 2C0 3.10456 0.89543 3.99999 2 3.99999Z" fill="#1A1A1A"/>
<path d="M12 3.99999C13.1046 3.99999 14 3.10456 14 2C14 0.895429 13.1046 0 12 0C10.8954 0 10 0.895429 10 2C10 3.10456 10.8954 3.99999 12 3.99999Z" fill="#1A1A1A"/>
<path d="M22 3.99999C23.1046 3.99999 24 3.10456 24 2C24 0.895429 23.1046 0 22 0C20.8954 0 20 0.895429 20 2C20 3.10456 20.8954 3.99999 22 3.99999Z" fill="#1A1A1A"/>
</svg>
